<svg width="215" height="114" viewBox="0 0 215 114" fill="none" xmlns="http://www.w3.org/2000/svg">
<path d="M126.481 45.242V45.3872V45.5323V45.6775V45.8226L126.627 45.9678V46.1129V46.2581V46.4032L126.774 46.5484V46.6935V46.8387V46.9838V47.129V47.2742V47.4193H126.92V47.5645V47.7096L129.705 47.4193V47.2742V47.129V46.9838V46.8387V46.6935L129.558 46.5484V46.4032V46.2581V46.1129V45.9678V45.8226L129.412 45.6775V45.5323V45.3872V45.242L129.265 45.0969V44.9517V44.8066V44.6614V44.5162L129.119 44.3711L126.334 45.0969V45.242H126.481Z" fill="#1D1D1B"/>
<path d="M128.092 41.3234V41.1783V41.0331L127.945 40.888V40.7428L127.799 40.5977V40.4525V40.3074L127.652 40.1622V40.0171H127.505V39.8719L127.359 39.7268V39.5816L127.212 39.4365V39.2913V39.1462L127.066 39.001V38.8558H126.919V38.7107L124.428 40.1622V40.3074L124.574 40.4525L124.721 40.5977V40.7428V40.888L124.867 41.0331L125.014 41.1783V41.3234V41.4686L125.161 41.6138V41.7589L125.307 41.9041V42.0492V42.1944H125.454V42.3395V42.4847L125.6 42.6298L128.238 41.4686L128.092 41.3234Z" fill="#1D1D1B"/>
<path d="M125.158 36.0977L125.012 35.9526V35.8074L124.865 35.6622L124.719 35.5171L124.572 35.3719V35.2268L124.425 35.0816H124.279V34.9365L124.132 34.7913L123.986 34.6462L123.839 34.501L123.693 34.3559V34.2107H123.546L123.4 34.0656V33.9204H123.253L121.201 35.8074V35.9526H121.348L121.494 36.0977V36.2429H121.641V36.388L121.787 36.5332H121.934V36.6783L122.081 36.8235L122.227 36.9686L122.374 37.1138V37.2589L122.52 37.4041L122.667 37.5492L122.813 37.6944L122.96 37.8395L125.305 36.2429L125.158 36.0977Z" fill="#1D1D1B"/>
<path d="M121.057 31.7435H120.91L120.764 31.5984L120.617 31.4532L120.47 31.3081H120.324L120.177 31.1629L120.031 31.0178L119.884 30.8726H119.738L119.591 30.7275L119.445 30.5823H119.298L119.151 30.4372L119.005 30.292L118.858 30.1469H118.712L118.565 30.0017L117.1 32.4693L117.246 32.6145H117.393L117.539 32.7596L117.686 32.9048H117.832V33.0499H117.979L118.126 33.1951H118.272V33.3402H118.419L118.565 33.4854L118.712 33.6305L118.858 33.7757L119.005 33.9208H119.151V34.066H119.298L121.057 31.8887V31.7435Z" fill="#1D1D1B"/>
<path d="M112.555 30.2926L112.701 30.4377H112.848L112.995 30.5829H113.141H113.288L113.434 30.728H113.581L113.727 30.8732H113.874H114.02V31.0183H114.167H114.314L114.46 31.1635H114.607L115.926 28.5507H115.779H115.633L115.486 28.4056H115.339L115.193 28.2604H115.046H114.9L114.753 28.1153H114.607H114.46V27.9701H114.314L114.167 27.825H114.02H113.874L113.727 27.6798H113.581H113.434L113.288 27.5347H113.141H112.995L112.115 30.2926H112.262H112.408H112.555Z" fill="#1D1D1B"/>
<path d="M107.133 29.276L107.28 29.4211H107.426H107.573H107.719H107.866H108.012H108.159H108.305H108.452H108.599L108.745 29.5663H108.892H109.038H109.185H109.331H109.478L110.064 26.8084H109.918H109.771H109.624L109.478 26.6632H109.331H109.185H109.038H108.892H108.745H108.599L108.452 26.5181H108.305H108.159H108.012H107.866H107.719H107.573H107.426H107.28H107.133H106.986L106.84 29.276H106.986H107.133Z" fill="#1D1D1B"/>
<path d="M145.676 45.3871V45.6774V45.8226V45.9677V46.258V46.4032V46.5483L145.529 46.8386V46.9838V47.2741V47.4192V47.7095L145.383 47.8547V48.145H150.073V47.8547V47.5644L150.219 47.4192V47.1289V46.8386V46.5483V46.4032V46.1129V45.8226L150.366 45.5322V45.3871L145.676 45.2419V45.3871Z" fill="#1D1D1B"/>
<path d="M144.947 36.8239V37.1142V37.4045L145.094 37.5497V37.84V38.1303L145.24 38.2755V38.5658V38.8561V39.0012L145.387 39.2915V39.5818V39.727V40.0173V40.3076L145.534 40.5979V40.7431V41.0334L150.077 40.5979V40.3076V40.0173V39.727L149.93 39.4367V39.1464V39.0012V38.7109L149.784 38.4206V38.1303V37.84V37.5497L149.637 37.2594V36.9691V36.8239L149.491 36.5336V36.2433L149.344 35.953V35.8079L144.801 36.8239H144.947Z" fill="#1D1D1B"/>
<path d="M142.158 28.5506L142.305 28.8409V28.986L142.451 29.2763L142.598 29.4215V29.7118L142.744 29.8569L142.891 30.1472V30.2924L143.038 30.5827L143.184 30.7279V31.0182L143.331 31.3085V31.4536L143.477 31.7439V31.8891L143.624 32.1794V32.3245L143.77 32.6148L148.167 31.1633L148.02 31.0182V30.7279L147.874 30.4375L147.727 30.1472V30.0021L147.581 29.7118V29.4215L147.434 29.1312L147.288 28.986V28.6957L147.141 28.4054L146.995 28.1151V27.97L146.848 27.6796L146.701 27.3893L146.555 27.2442V26.9539L146.408 26.6636L142.158 28.5506Z" fill="#1D1D1B"/>
<path d="M137.766 21.1483L137.912 21.4386L138.059 21.5837L138.205 21.7289L138.352 22.0192L138.498 22.1644L138.645 22.3095L138.792 22.5998L138.938 22.745L139.085 22.8901L139.231 23.1804V23.3256L139.378 23.6159L139.524 23.761L139.671 23.9062L139.817 24.1965L139.964 24.3417L140.111 24.4868V24.7771L144.068 22.4547V22.1644L143.921 22.0192L143.774 21.7289L143.628 21.5837L143.481 21.2934L143.335 21.0031L143.188 20.858L143.042 20.5677L142.895 20.4225L142.749 20.1322L142.602 19.9871L142.455 19.6968L142.309 19.5516L142.162 19.2613L142.016 19.1161L141.869 18.8258L141.576 18.6807L141.43 18.5355V18.3904L137.766 21.1483Z" fill="#1D1D1B"/>
<path d="M132.047 15.0524L132.34 15.3427L132.487 15.4879L132.633 15.633L132.78 15.7782L132.926 15.9233L133.219 16.0685L133.366 16.2136L133.513 16.3588L133.659 16.5039L133.806 16.7942L133.952 16.9394L134.245 17.0845L134.392 17.2297L134.538 17.3749L134.685 17.52L134.832 17.8103H134.978L138.349 14.7621L138.202 14.6169L138.056 14.4718L137.909 14.1815L137.616 14.0363L137.47 13.8912L137.323 13.6009L137.03 13.4557L136.883 13.3106L136.737 13.1654L136.59 12.8751L136.297 12.73L136.151 12.5848L136.004 12.4397L135.711 12.1493L135.564 12.0042L135.418 11.859L135.125 11.7139L134.978 11.5687L134.832 11.4236L131.754 14.9073H131.9L132.047 15.0524Z" fill="#1D1D1B"/>
<path d="M124.867 10.1162L125.014 10.2613H125.307L125.454 10.4065L125.747 10.5516L125.893 10.6968L126.04 10.8419L126.333 10.9871H126.479L126.773 11.1322L126.919 11.2774L127.066 11.4225L127.359 11.5677L127.505 11.7129L127.798 11.858L127.945 12.0032L128.092 12.1483H128.385L130.876 8.37434L130.73 8.22918L130.437 8.08403L130.29 7.93888L129.997 7.79373L129.85 7.64857L129.557 7.50342L129.411 7.35827L129.117 7.21311H128.971L128.678 7.06796L128.385 6.92281L128.238 6.77766L127.945 6.6325L127.798 6.48735L127.505 6.3422L127.212 6.19704L127.066 6.05189L126.773 5.90674L124.574 9.97102L124.867 10.1162Z" fill="#1D1D1B"/>
<path d="M116.953 6.9221H117.246L117.393 7.06726H117.686L117.979 7.21241H118.126L118.419 7.35756H118.565L118.859 7.50272H119.152L119.298 7.64787L119.591 7.79302H119.738L120.031 7.93817H120.178L120.471 8.08333H120.617L122.376 3.87389H122.083L121.936 3.72874L121.643 3.58359H121.35L121.057 3.43843L120.91 3.29328H120.617L120.324 3.14813H120.031L119.884 3.00297L119.591 2.85782H119.298L119.005 2.71267H118.859L118.565 2.56752H118.272L117.979 2.42236H117.686L116.514 6.77695H116.807L116.953 6.9221Z" fill="#1D1D1B"/>
<path d="M108.453 5.47107H108.6H108.893H109.186H109.479H109.626H109.919L110.212 5.61622H110.359H110.652H110.945H111.091L111.385 5.76137H111.678H111.971H112.117L112.264 5.90652L112.997 1.40678L112.85 1.26163H112.557H112.264H112.117L111.824 1.11648H111.531H111.238H110.945L110.652 0.971325H110.359H110.066H109.772H109.479L109.186 0.826172H109.04H108.747H108.453H108.16L107.867 5.32591L108.16 5.47107H108.453Z" fill="#1D1D1B"/>
<path d="M136.297 45.8233V45.9685L136.443 46.2588V46.4039V46.5491V46.8394V46.9845V47.1297V47.42L136.59 47.5651V47.7103V48.0006V48.1458H140.547V47.8555V47.7103V47.42V47.2748V46.9845V46.8394V46.5491L140.4 46.4039V46.1136V45.9685V45.6782V45.533L140.254 45.2427V45.0975V44.9524L136.297 45.6782V45.8233Z" fill="#1D1D1B"/>
<path d="M134.393 38.7117V39.002L134.539 39.1472V39.2923L134.686 39.4375V39.5826L134.832 39.8729V40.0181L134.979 40.1632V40.3084V40.4535L135.125 40.7438V40.889L135.272 41.0341V41.1793V41.4696L135.419 41.6148V41.7599V41.9051L139.376 40.889V40.5987L139.229 40.4535V40.1632L139.082 40.0181V39.8729L138.936 39.5826V39.4375L138.789 39.2923V39.002L138.643 38.8569V38.5665V38.4214L138.496 38.2762L138.35 37.9859V37.8408L138.203 37.6956V37.4053L138.057 37.2602V37.115L137.91 36.8247L134.246 38.4214V38.5665L134.393 38.7117Z" fill="#1D1D1B"/>
<path d="M130.582 32.1792L130.729 32.3243L130.875 32.4695L131.022 32.6146V32.7598L131.168 32.9049L131.315 33.0501V33.1952L131.461 33.3404L131.608 33.4855L131.755 33.6307V33.921L131.901 34.0661L132.048 34.2113V34.3565L132.194 34.5016L132.341 34.6468V34.7919L132.487 34.9371V35.0822L136.005 33.0501V32.9049L135.858 32.7598L135.712 32.6146V32.4695L135.565 32.1792L135.418 32.034L135.272 31.8889L135.125 31.7437V31.4534L134.979 31.3082L134.832 31.1631L134.686 31.0179V30.8728L134.539 30.7276L134.393 30.4373L134.246 30.2922L134.099 30.147L133.953 30.0019V29.8567L133.806 29.7116L133.66 29.5664L130.436 31.8889L130.582 32.034V32.1792Z" fill="#1D1D1B"/>
<path d="M130.729 26.2284L130.583 26.0832L130.436 25.9381L130.29 25.7929L130.143 25.6478L129.997 25.5026L129.85 25.3574L129.703 25.2123L129.557 25.0671L129.41 24.922L129.264 24.7768L129.117 24.6317L128.971 24.4865L128.824 24.3414L128.678 24.1962L128.531 24.0511L128.384 23.9059L128.238 23.7608L127.945 23.6156L127.798 23.4705L125.16 26.5187L125.307 26.6638L125.453 26.809H125.6L125.746 26.9541L125.893 27.0993L126.039 27.2444L126.186 27.3896L126.333 27.5347H126.479L126.626 27.6799V27.825L126.772 27.9702L126.919 28.1153L127.065 28.2605L127.212 28.4057H127.359L127.505 28.5508L127.652 28.696L127.798 28.8411L127.945 28.9863V29.1314L130.876 26.2284H130.729Z" fill="#1D1D1B"/>
<path d="M122.08 19.6957H121.933L121.64 19.5506L121.494 19.4054H121.347L121.2 19.2603L120.907 19.1151H120.761L120.614 18.97H120.468L118.709 22.5988H118.856L119.002 22.7439H119.149L119.295 22.8891H119.588L119.735 23.0343L119.881 23.1794H120.028L120.175 23.3246H120.321L120.468 23.4697L120.614 23.6149H120.907L121.054 23.76H121.2L121.347 23.9052L121.494 24.0503H121.64L121.787 24.1955L121.933 24.3406H122.08L124.278 21.0021L124.132 20.857L123.838 20.7118H123.692L123.545 20.5667L123.399 20.4215H123.252L122.959 20.2763L122.813 20.1312L122.666 19.986H122.373L122.226 19.8409L122.08 19.6957Z" fill="#1D1D1B"/>
<path d="M112.702 16.5031L112.409 16.3579H112.262L111.529 20.277H111.676L111.822 20.4222H112.116H112.262H112.409L112.555 20.5673H112.848H112.995L113.141 20.7125H113.288H113.581L113.728 20.8576H113.874H114.021L114.314 21.0028H114.46H114.607L114.754 21.148H115.047H115.193V21.2931L116.512 17.374H116.366H116.219L115.926 17.2288H115.779L115.633 17.0837H115.34H115.193L114.9 16.9385H114.754H114.607L114.314 16.7934H114.167L113.874 16.6482H113.728H113.435L113.288 16.5031H113.141H112.848H112.702Z" fill="#1D1D1B"/>
<path d="M112.554 97.4983L112.261 97.7886L112.115 98.0789L111.968 98.2241L111.675 98.5144L111.528 98.8047L111.382 98.9498L111.089 99.2401L110.942 99.5304L110.649 99.6756L110.502 99.9659L110.356 100.111L110.209 100.401L109.916 100.692L109.77 100.837L109.623 101.127L113.14 103.885L113.287 103.74L113.58 103.45L113.727 103.304L113.873 103.014L114.166 102.869L114.313 102.579L114.459 102.288L114.753 102.143L114.899 101.853L115.046 101.708L115.339 101.417L115.485 101.127L115.632 100.982L115.925 100.692L116.072 100.401L112.554 97.4983Z" fill="#1D1D1B"/>
<path d="M118.269 90.676L117.976 90.9663L117.829 91.1115L117.536 91.4018L117.39 91.6921L117.097 91.9824L116.95 92.2727L116.657 92.4179L116.51 92.7082L116.364 92.9985L116.071 93.2888L115.924 93.5791L115.631 93.7243L115.484 94.0146L119.002 96.9176L119.148 96.6273L119.441 96.4822L119.588 96.1918L119.881 95.9015L120.028 95.6112L120.321 95.4661L120.467 95.1758L120.76 94.8855L120.907 94.5952L121.2 94.3049L121.347 94.1597L121.64 93.8694L121.786 93.5791L121.933 93.4339L118.416 90.3857L118.269 90.676Z" fill="#1D1D1B"/>
<path d="M105.814 22.8895C107.133 20.4219 108.013 18.6801 109.478 16.0673L107.719 12.5836L105.961 9.24512L104.056 12.7288L102.297 16.2125C103.469 18.5349 104.642 20.567 105.814 22.8895Z" fill="#1D1D1B"/>
<path d="M83.3881 12.1472H83.5347L83.6812 12.0021L83.9743 11.8569L84.1209 11.7117L84.414 11.5666L84.5606 11.4214L84.7071 11.2763L85.0002 11.1311L85.1468 10.986H85.2933L85.5865 10.8408L85.733 10.6957L86.0261 10.5505L86.1727 10.4054L86.4658 10.2602H86.6124L86.7589 10.1151H86.9055L84.7071 6.05078H84.5606L84.414 6.19593L84.1209 6.34109L83.9743 6.48624L83.6812 6.63139L83.3881 6.77655L83.2415 6.9217L82.9484 7.06685L82.8019 7.212H82.5088L82.3622 7.35716L82.0691 7.50231L81.9225 7.64746L81.6294 7.79262L81.3363 7.93777L81.1897 8.08292L80.8966 8.22808L80.7501 8.37323L80.6035 8.51838L83.2415 12.2924L83.3881 12.1472Z" fill="#1D1D1B"/>
<path d="M91.8896 34.3564H92.0362L92.1827 34.2112L92.3293 34.0661H92.4758V33.9209H92.6224L92.769 33.7758H92.9155V33.6306L93.0621 33.4855H93.2086V33.3403H93.3552L93.5017 33.1952L93.6483 33.05H93.7949L93.9414 32.9049L94.088 32.7597L92.4758 30.4373L92.3293 30.5824H92.1827V30.7276H92.0362L91.8896 30.8727H91.7431L91.5965 31.0179V31.163H91.4499L91.3034 31.3082H91.1568L91.0103 31.4533V31.5985H90.8637L90.7172 31.7436H90.5706V31.8888L90.424 32.0339H90.2775L90.1309 32.1791V32.3242H89.9844L91.8896 34.5015V34.3564Z" fill="#1D1D1B"/>
<path d="M89.8409 24.1966L89.9875 24.0514H90.1341L90.2806 23.9063L90.4272 23.7611H90.7203L90.8668 23.616H91.0134L91.16 23.4708L91.3065 23.3257H91.4531L91.5996 23.1805H91.7462L92.0393 23.0354L92.1859 22.8902H92.3324L92.479 22.7451H92.6255L92.7721 22.5999H92.9186L93.0652 22.4548L91.4531 18.8259L91.3065 18.9711H91.16L90.8668 19.1162H90.7203L90.5737 19.2614L90.2806 19.4065H90.1341L89.9875 19.5517L89.8409 19.6968H89.5478L89.4013 19.842L89.2547 19.9872H89.1082L88.815 20.1323L88.6685 20.2775L88.5219 20.4226H88.3754L88.0822 20.5678L87.9357 20.7129H87.7891L87.6426 20.8581L89.6944 24.3417L89.8409 24.1966Z" fill="#1D1D1B"/>
<path d="M71.5196 24.7777L71.6662 24.4874V24.3422L71.8127 24.1971L71.9593 23.9068L72.1058 23.7616L72.2524 23.6165L72.399 23.3262L72.5455 23.181L72.6921 22.8907L72.8386 22.7456V22.6004L72.9852 22.3101L73.1317 22.165L73.2783 22.0198L73.4249 21.7295L73.5714 21.5843L73.718 21.4392L73.8645 21.294L70.054 18.5361V18.6813L69.9075 18.8264L69.7609 19.1167L69.6144 19.2619L69.4678 19.5522L69.3213 19.6974L69.0281 19.9877L68.8816 20.1328L68.735 20.4231L68.5885 20.5683L68.4419 20.8586L68.2954 21.0037L68.1488 21.294L68.0022 21.5843V21.7295L67.8557 22.0198L67.7091 22.165L67.5626 22.4553L67.416 22.6004L71.3731 24.9229L71.5196 24.7777Z" fill="#1D1D1B"/>
<path d="M76.6482 17.9544L76.7947 17.8092L76.9413 17.5189L77.0878 17.3737L77.2344 17.2286L77.5275 17.0834L77.6741 16.9383L77.8206 16.7931L77.9672 16.5028L78.1137 16.3577L78.2603 16.2125L78.5534 16.0674L78.7 15.9222L78.8465 15.7771L78.9931 15.6319L79.1396 15.4868L79.4327 15.3416L79.5793 15.0513L79.7259 14.9061L76.7947 11.5676H76.6482L76.5016 11.7128L76.355 11.8579L76.0619 12.0031L75.9154 12.1482L75.7688 12.4385L75.4757 12.5837L75.3291 12.7288L75.1826 12.874L74.8895 13.1643L74.7429 13.3095L74.5964 13.4546L74.4498 13.5998L74.1567 13.8901L74.0101 14.0352L73.8636 14.1804L73.5705 14.4707L73.4239 14.6158L73.2773 14.761V14.9061L76.6482 17.9544Z" fill="#1D1D1B"/>
<path d="M83.9761 28.8405V28.6954L84.1227 28.5502L84.2693 28.4051H84.4158L84.5624 28.2599L84.7089 28.1148L84.8555 27.9696L85.002 27.8244L85.1486 27.6793L85.2952 27.5341H85.4417L85.5883 27.389L85.7348 27.2438L85.8814 27.0987V26.9535L86.0279 26.8084H86.1745L86.3211 26.6632L86.4676 26.5181L86.6142 26.3729L84.1227 23.3247L83.9761 23.4699H83.8296L83.683 23.615L83.5365 23.7602L83.3899 23.9053L83.2434 24.0505L83.0968 24.1956L82.8037 24.3408L82.6571 24.4859L82.5106 24.6311L82.364 24.7762L82.2174 24.9214L82.0709 25.0665L81.9243 25.2117L81.7778 25.3568L81.6312 25.502L81.4847 25.6472L81.3381 25.7923L81.1916 25.9375L81.045 26.0826H80.8984L83.8296 28.9857L83.9761 28.8405Z" fill="#1D1D1B"/>
<path d="M91.0127 8.22848L91.1592 8.08333L91.4523 7.93817H91.5989L91.892 7.79302H92.1851L92.3317 7.64787L92.6248 7.50272H92.7714L93.0645 7.35756H93.211L93.5041 7.21241H93.7973L93.9438 7.06726H94.2369L94.3835 6.9221H94.6766L94.9697 6.77695L93.7973 2.42236H93.6507L93.3576 2.56752H93.0645L92.9179 2.71267H92.6248L92.3317 2.85782H92.0386L91.892 3.00297L91.5989 3.14813H91.3058L91.0127 3.29328H90.8661L90.573 3.43843L90.2799 3.58359H89.9868L89.8402 3.72874L89.5471 3.87389H89.254L89.1074 4.01905L90.8661 8.22848H91.0127Z" fill="#1D1D1B"/>
<path d="M99.2191 5.90652L99.5122 5.76137H99.8053H99.9519H100.245L100.538 5.61622H100.685H100.978H101.271H101.564L101.711 5.47107H102.004H102.297H102.443H102.736H103.03H103.323H103.469H103.616L103.323 0.826172H103.03H102.736H102.443L102.15 0.971325H101.857H101.564H101.271H100.978L100.685 1.11648H100.392H100.098H99.9519L99.6588 1.26163H99.3657H99.0726H98.7794L98.4863 1.40678L99.2191 5.90652Z" fill="#1D1D1B"/>
<path d="M101.713 29.7114H101.86H102.006L102.153 29.5663H102.3H102.446H102.593H102.739H102.886L103.032 29.4211H103.179H103.325H103.472H103.619H103.765H103.912H104.058H104.205L103.912 26.5181H103.765H103.619H103.472H103.325H103.179L103.032 26.6632H102.886H102.739H102.593H102.446H102.3H102.153L102.006 26.8084H101.86H101.713H101.567H101.42H101.274L101.127 26.9535H100.981H100.834L101.567 29.7114H101.713Z" fill="#1D1D1B"/>
<path d="M96.7272 21.148H96.8738L97.0203 21.0028H97.1669H97.46L97.6066 20.8577H97.7531H97.8997L98.1928 20.7125H98.3393H98.4859L98.6325 20.5673H98.9256H99.0721L99.2187 20.4222H99.3653H99.6584H99.8049L99.9515 20.277H100.245L99.5118 16.3579H99.2187L99.0721 16.5031H98.779H98.6325H98.3393L98.1928 16.6482H97.8997H97.7531L97.6066 16.7934H97.3135L97.1669 16.9385H96.8738H96.7272L96.4341 17.0837H96.2875H96.141L95.8479 17.2288H95.7013L95.4082 17.374L96.5807 21.148H96.7272Z" fill="#1D1D1B"/>
<path d="M61.4082 46.1135V46.4038V46.5489V46.8392V47.1295L61.5548 47.4198V47.565V47.8553V48.1456H66.2446V47.8553V47.7101L66.098 47.4198V47.2747V46.9844V46.8392V46.6941V46.4038V46.2586L65.9515 45.9683V45.8232V45.678V45.3877L61.4082 45.678V45.8232V46.1135Z" fill="#1D1D1B"/>
<path d="M96.4362 31.4533H96.5828V31.3081H96.7293H96.8759L97.0224 31.163H97.169L97.3155 31.0178H97.4621H97.6087L97.7552 30.8727H97.9018L98.0483 30.7275H98.1949H98.3414L98.488 30.5824H98.6346L98.7811 30.4372H98.9277L97.9018 27.8245H97.7552H97.6087L97.4621 27.9696H97.3155L97.169 28.1148H97.0224H96.8759L96.7293 28.2599H96.5828H96.4362L96.2896 28.4051H96.1431L95.9965 28.5502H95.85L95.7034 28.6954H95.5569L95.4103 28.8405H95.2637L95.1172 28.9857L96.4362 31.4533Z" fill="#1D1D1B"/>
<path d="M86.7621 35.6627V35.8078L86.6155 35.953L86.469 36.0981L86.3224 36.2433V36.3885L86.1759 36.5336V36.6788H86.0293V36.8239L88.3742 38.4206L88.5208 38.2754V38.1303L88.6673 37.9851L88.8139 37.84V37.6948H88.9604V37.5497L89.107 37.4045L89.2536 37.2594V37.1142L89.4001 36.9691H89.5467V36.8239H89.6932V36.6788L89.8398 36.5336L89.9864 36.3885L87.788 34.5015V34.6466H87.6414L87.4949 34.7918V34.9369L87.3483 35.0821H87.2018V35.2272L87.0552 35.3724L86.9086 35.5175L86.7621 35.6627Z" fill="#1D1D1B"/>
<path d="M85.8842 43.0656L86.0308 42.9204V42.7753L86.1773 42.6301V42.485V42.3398L86.3239 42.1947V42.0495L86.4704 41.9044V41.7592V41.6141H86.617V41.4689V41.3238L86.7635 41.1786V41.0334H86.9101V40.8883V40.7431L84.4186 39.4368L84.2721 39.5819V39.7271L84.1255 39.8722V40.0174L83.979 40.1625V40.3077L83.8324 40.4528V40.598V40.7431L83.6858 40.8883V41.0334L83.5393 41.1786V41.3238V41.4689L83.3927 41.6141V41.7592L83.2462 41.9044V42.0495L83.0996 42.1947L85.8842 43.2107V43.0656Z" fill="#1D1D1B"/>
<path d="M101.566 101.418L101.419 101.127L101.273 100.837L100.979 100.692L100.833 100.401L100.686 100.256L100.393 99.966L100.247 99.6757L100.1 99.5305L99.9535 99.2402L99.6604 98.9499L99.5138 98.8048L99.3673 98.5145L99.0742 98.2241L98.9276 98.079L98.781 97.9338L95.2637 100.837L95.5568 101.127L95.7033 101.418L95.8499 101.563L96.143 101.853L96.2896 102.143L96.4361 102.288L96.7292 102.579L96.8758 102.869L97.0224 103.014L97.3155 103.304L97.462 103.45L97.6086 103.74L97.7551 104.03L98.0483 104.175V104.321L101.712 101.563L101.566 101.418Z" fill="#1D1D1B"/>
<path d="M95.8489 94.3047L95.5558 94.0144L95.4092 93.7241L95.2627 93.579L94.9696 93.2886L94.823 92.9983L94.5299 92.708L94.3833 92.5629L94.0902 92.2726L93.9437 91.9823L93.6506 91.692L93.504 91.4017L93.3574 91.2565L93.0643 90.9662V90.821L89.4004 93.7241L89.5469 93.8693L89.6935 94.0144L89.9866 94.3047L90.1332 94.595L90.2797 94.8853L90.5728 95.1756L90.7194 95.3208L91.0125 95.6111L91.1591 95.9014L91.4522 96.1917L91.5987 96.482L91.8919 96.6272L92.0384 96.9175L92.185 97.2078H92.3315L95.8489 94.4499V94.3047Z" fill="#1D1D1B"/>
<path d="M66.098 41.034L66.2445 40.7437V40.5985V40.3082V40.0179V39.7276L66.3911 39.5824V39.2921V39.0018V38.8567V38.5664L66.5376 38.2761V38.1309V37.8406L66.6842 37.5503V37.4051V37.1148L66.8307 36.9697L62.2875 35.9536L62.1409 36.2439V36.5342V36.8245L61.9944 36.9697V37.26V37.5503L61.8478 37.8406V38.1309V38.4212V38.7115L61.7012 39.0018V39.147V39.4373V39.7276L61.5547 40.0179V40.3082V40.5985V40.7437L66.098 41.1791V41.034Z" fill="#1D1D1B"/>
<path d="M100.979 107.949L101.125 108.094L105.815 113.755L110.651 107.949L105.815 103.594L100.979 107.949Z" fill="#1D1D1B"/>
<path d="M105.815 90.3857L103.763 92.9985L101.711 95.6112L103.763 98.3691L105.815 100.982L107.866 98.3691L109.918 95.6112L107.866 92.9985L105.961 90.3857H105.815Z" fill="#1D1D1B"/>
<path d="M71.3732 44.8066V45.0969V45.2421V45.5324L71.2266 45.6776V45.9679V46.113V46.4033V46.5485V46.8388L71.0801 46.9839V47.2742V47.4194V47.7097V47.8549V48.1452H75.0371L75.1837 48V47.7097V47.5645V47.4194V47.1291V46.9839V46.8388V46.5485L75.3302 46.4033V46.2582V45.9679V45.8227V45.6776L75.4768 45.3873L71.3732 44.8066Z" fill="#1D1D1B"/>
<path d="M67.8576 32.6154L68.0042 32.3251V32.18L68.1508 31.8897V31.7445L68.2973 31.4542L68.4439 31.3091V31.0188L68.5904 30.7285V30.5833L68.737 30.293L68.8836 30.1478V29.8575L69.0301 29.7124V29.4221L69.1767 29.2769L69.3232 28.9866V28.8415L69.4698 28.6963L65.2196 26.8093V26.9545L65.0731 27.2448L64.9265 27.3899L64.78 27.6802V27.9706L64.6334 28.1157L64.4868 28.406V28.6963L64.3403 28.9866L64.1937 29.1318V29.4221L64.0472 29.7124L63.9006 30.0027V30.1478L63.7541 30.4381V30.7285L63.6075 31.0188L63.4609 31.1639V31.3091L67.8576 32.7606V32.6154Z" fill="#1D1D1B"/>
<path d="M79.2869 34.7913L79.4335 34.6462V34.501L79.58 34.3559L79.7266 34.2107V34.0655L79.8731 33.9204L80.0197 33.6301V33.4849L80.1662 33.3398L80.3128 33.1946L80.4594 33.0495V32.9043L80.6059 32.7592L80.7525 32.614V32.4689L80.899 32.3237L81.0456 32.1786L81.1921 32.0334V31.8883L81.3387 31.7431L78.1144 29.4207H77.9679V29.711L77.8213 29.8561L77.6748 30.0013L77.5282 30.1464L77.3817 30.2916L77.2351 30.4367V30.727L77.0885 30.8722L76.942 31.0173L76.7954 31.1625L76.6489 31.3076V31.4528L76.5023 31.7431L76.3558 31.8883L76.2092 32.0334V32.1786L76.0626 32.4689L75.9161 32.614L75.7695 32.7592V32.9043L79.2869 34.9365V34.7913Z" fill="#1D1D1B"/>
<path d="M76.2109 41.7593L76.3574 41.6142V41.469V41.1787L76.504 41.0335V40.8884L76.6505 40.7432V40.4529V40.3078L76.7971 40.1626V40.0175L76.9437 39.8723V39.582L77.0902 39.4369V39.2917V39.1466L77.2368 39.0014V38.7111L77.3833 38.5659V38.4208L77.5299 38.2756L73.866 36.679L73.7194 36.8241L73.5728 37.1144V37.2596L73.4263 37.4047V37.695L73.2797 37.8402V37.9853L73.1332 38.2756V38.4208L72.9866 38.5659V38.8562L72.8401 39.0014V39.2917L72.6935 39.4369V39.582L72.5469 39.8723V40.0175V40.1626L72.4004 40.4529V40.5981V40.7432L76.2109 41.7593Z" fill="#1D1D1B"/>
<path d="M84.7104 48.001V47.8558L84.8569 47.7107V47.5655V47.4203V47.2752V47.13V46.9849V46.8397L85.0035 46.6946V46.5494V46.4043V46.2591V46.114L85.15 45.9688V45.8237V45.6785L82.3655 45.0979V45.2431L82.2189 45.3882V45.5334V45.6785V45.8237V45.9688L82.0723 46.114V46.2591V46.4043V46.5494V46.6946V46.8397L81.9258 46.9849V47.13V47.2752V47.4203V47.5655V47.7107V47.8558V48.001V48.1461H84.7104V48.001Z" fill="#1D1D1B"/>
<path d="M212.654 69.7731L202.835 62.2251C201.516 61.2091 200.929 59.9027 200.929 58.5963C200.929 55.2578 204.007 53.8063 206.938 53.8063C209.723 53.8063 212.361 54.8223 212.361 58.0157H212.947L212.8 52.7902H211.188C209.869 52.4999 208.404 52.3547 206.645 52.3547C203.714 52.3547 200.929 53.3708 199.317 55.8384C197.559 58.5963 198.145 62.5154 200.636 64.6927L210.456 72.0955C211.628 73.1116 212.214 74.418 212.214 76.0147C212.214 79.7886 208.697 81.3853 205.326 81.3853C201.222 81.3853 198.291 78.7726 198.878 74.5631H198.291C197.852 75.7244 197.705 77.0307 197.705 78.192C197.705 79.3532 197.705 80.2241 197.852 80.5144C199.757 82.2562 203.714 82.8369 206.352 82.8369C210.895 82.8369 214.999 79.6435 214.999 74.9986C214.999 72.6761 214.119 70.9343 212.654 69.7731Z" fill="#1D1D1B"/>
<path d="M162.387 80.804C161.801 80.3686 161.361 79.6428 161.361 78.917V55.9829C161.361 55.2571 161.801 54.6765 162.387 54.2411C163.266 53.5153 164.145 53.5153 165.318 53.5153V53.0798H154.326V53.5153C155.499 53.5153 156.378 53.5153 157.257 54.2411C157.844 54.8217 158.283 55.4023 158.283 56.128V78.917C158.283 80.5137 156.525 81.5298 155.059 81.5298H154.326V81.9653H165.465V81.5298C164.145 81.5298 163.266 81.5298 162.387 80.804Z" fill="#1D1D1B"/>
<path d="M146.41 78.0472C145.677 77.3215 144.798 76.1603 143.625 74.7087C142.453 73.2572 141.867 72.5314 141.867 72.5314C140.401 70.4993 139.082 69.1929 138.056 68.7575C142.599 68.322 145.677 64.9835 145.677 60.4837C145.677 54.9679 140.548 52.9358 135.711 52.9358H123.4V53.3712H124.133C125.599 53.3712 126.918 54.3873 126.918 55.8388V78.773C126.918 79.4988 126.625 80.0794 126.038 80.66C125.159 81.3858 124.426 81.3858 123.4 81.3858V81.8212H133.366V81.3858C132.633 81.3858 132.047 81.3858 131.314 81.0955C130.435 80.5148 129.995 79.7891 129.995 78.773V54.5325H132.633C135.272 54.5325 138.203 54.3873 140.401 56.2743C142.746 58.4516 142.599 62.5159 140.987 65.1286C140.548 65.7092 139.815 66.2899 138.789 66.8705C138.056 67.3059 135.711 67.4511 131.901 67.4511V67.8865C134.978 67.8865 137.47 72.096 139.229 74.4184C140.987 76.886 142.16 78.9182 144.798 80.66C146.996 82.2567 149.781 82.1115 152.419 82.1115V81.6761C149.488 81.5309 148.022 79.9342 146.41 78.0472Z" fill="#1D1D1B"/>
<path d="M120.03 53.3711V47.2747C119.737 47.4198 119.15 47.565 118.124 47.8553C117.099 48.1456 115.78 48.2907 114.167 48.2907H97.6064C95.9943 48.2907 93.2097 48.0004 91.7441 47.4198V53.5162H92.1838V52.6453C92.1838 51.0486 93.3563 49.7423 94.9684 49.7423H104.202V78.7728C104.202 79.6438 103.908 80.2244 103.176 80.805C102.296 81.6759 101.563 81.6759 100.391 81.6759V82.1114H111.09V81.6759H110.503C108.745 81.6759 107.426 80.3695 107.426 78.6277V49.5971H116.659C118.271 49.5971 119.443 50.9035 119.443 52.5002V53.3711H120.03Z" fill="#1D1D1B"/>
<path d="M182.172 52.9358H170.74V53.3712H171.473C172.939 53.3712 174.258 54.3873 174.258 55.984V78.9182C174.258 79.6439 173.964 80.2245 173.378 80.8052C172.499 81.5309 171.766 81.5309 170.74 81.5309V81.9664H180.853V81.5309C180.12 81.5309 179.534 81.5309 178.801 81.2406C177.922 80.8052 177.482 79.9342 177.335 78.9182V54.3873H182.025C186.129 54.3873 189.793 56.2743 189.793 60.774C189.793 61.9353 189.646 62.8062 189.5 63.3868C188.913 65.1286 187.887 66.5802 186.422 67.3059C184.517 68.6123 181.439 68.7575 179.241 68.1769V68.6123C180.853 69.3381 182.611 69.7735 184.37 69.7735C189.646 69.7735 193.31 66.2899 193.31 61.0644C193.31 55.1131 187.448 52.9358 182.172 52.9358Z" fill="#1D1D1B"/>
<path d="M107.278 85.3049C107.278 83.8534 106.252 83.4179 104.787 84.1437C93.5019 90.0949 84.1223 80.3697 75.7685 66.7253L83.6826 55.8388C84.2688 55.1131 85.0016 54.5325 85.7344 54.097C86.9069 53.3712 87.7862 53.3712 88.9587 53.3712V52.9358H78.1134V53.3712C78.8462 53.3712 79.579 53.3712 80.1652 54.097C80.6049 54.6776 80.898 55.2582 80.3118 55.984L74.4495 64.8383L68.2941 55.984C67.8544 55.2582 68.001 54.8228 68.4406 54.097C68.8803 53.3712 69.7597 53.3712 70.4924 53.3712V52.9358H59.061V53.3712H59.6472C61.4059 53.3712 63.3111 54.3873 64.337 55.8388L72.5442 67.5962L63.4577 79.2085C61.8456 81.0954 60.5266 81.5309 58.1816 81.5309V81.9664H68.8803V81.5309C68.1475 81.5309 67.2682 81.5309 66.8285 80.8051C66.3888 80.0794 66.0957 79.4988 66.682 78.773L73.8633 69.1929C87.7862 89.224 107.425 90.8207 107.278 85.3049Z" fill="#1D1D1B"/>
<path d="M13.9229 80.5146H6.88819V51.6292C6.88819 51.0486 7.03474 50.6131 7.32786 50.0325C8.2072 48.581 9.2331 48.581 10.6987 48.581V48.1455H0V48.581H0.586229C2.34491 48.581 3.66393 49.8873 3.66393 51.6292V78.4825C3.66393 80.2243 2.19836 81.5307 0.586229 81.5307H0V81.9661H20.2249L23.0095 74.1279H22.5698C20.9577 78.3373 18.6128 80.5146 13.9229 80.5146Z" fill="#1D1D1B"/>
<path d="M48.6594 53.5153H49.3922C50.7112 53.5153 51.7371 54.3862 51.7371 55.5474V71.8046C51.7371 77.7558 47.9266 81.3846 41.9178 81.3846C35.6158 81.3846 32.6847 77.1752 32.6847 71.2239V55.5474C32.6847 54.9668 32.9778 54.5314 33.4175 54.0959C34.1503 53.3701 34.8831 53.5153 35.7624 53.5153V53.0798H26.5293V53.5153C27.4086 53.5153 28.1414 53.5153 28.8742 54.0959C29.3139 54.5314 29.607 54.9668 29.607 55.5474V71.8046C29.607 79.0622 34.8831 82.691 41.7712 82.691C48.6594 82.691 53.9355 79.0622 53.9355 71.8046V55.5474C53.9355 55.112 54.0821 54.8217 54.2286 54.5314C54.9614 53.5153 55.8407 53.5153 57.0132 53.5153V53.0798H48.6594V53.5153Z" fill="#1D1D1B"/>
</svg>
