<svg width="49" height="21" viewBox="0 0 49 21" fill="none" xmlns="http://www.w3.org/2000/svg">
<path d="M24.892 20.8418L22.5101 16.3278L20.2051 11.8138C21.857 8.64439 23.3169 5.89757 24.9496 2.78579L29.6941 11.8138L27.2546 16.3278L24.892 20.8418Z" fill="white"/>
<path d="M48.807 5.45576L48.5765 5.59022L48.346 5.74389L48.0963 5.87835L47.8658 6.03202L47.6161 6.16648L47.3856 6.30094L47.1551 6.4354L46.9054 6.56986L46.6556 6.70432L46.4251 6.81957L46.1754 6.95403L45.9257 7.08849L45.6952 7.22295L45.4455 7.3382L45.1958 7.47266L44.9461 7.58791L44.6964 7.70316L44.4467 7.81841L44.197 7.95287L44.0625 8.0105L41.8535 3.18916L41.9496 3.15074L42.1801 3.0547L42.3914 2.93945L42.6219 2.8242L42.8332 2.72815L43.0444 2.6129L43.2749 2.49765L43.4862 2.3824L43.6975 2.28636L43.9088 2.17111L44.1393 2.03665L44.3506 1.9214L44.5619 1.80615L44.7732 1.69089L44.9845 1.57564L45.1958 1.44118L45.4071 1.32593L45.6184 1.21068L45.8297 1.07622L46.041 0.941763L46.2331 0.826511L48.9991 5.34051L48.807 5.45576Z" fill="white"/>
<path d="M38.4745 10.1619L38.2056 10.2388L37.9367 10.3156L37.6678 10.4116L37.3988 10.4885L37.1299 10.5461L36.8418 10.6229L36.5729 10.6998L36.3039 10.7766L36.035 10.8342L35.7469 10.9111L35.478 10.9879L35.2091 11.0455L34.9209 11.1031L34.652 11.1608L34.3639 11.2376L34.095 11.2952L33.8068 11.3336L33.5379 11.3913L33.3843 11.4297L32.4238 6.22418L32.5391 6.20497L32.7888 6.14735L33.0385 6.10893L33.269 6.0513L33.5187 5.99368L33.7684 5.93605L34.0181 5.87843L34.2486 5.8208L34.4983 5.78238L34.7481 5.70555L34.9786 5.64792L35.2283 5.5903L35.478 5.51346L35.7085 5.45584L35.939 5.39821L36.1887 5.32138L36.4192 5.24455L36.6689 5.18692L36.8994 5.11009L37.1491 5.03325L37.2452 4.99483L38.8395 10.0467L38.7434 10.0659L38.4745 10.1619Z" fill="white"/>
<path d="M16.5372 11.4488L16.2491 11.3912L15.961 11.3336L15.6921 11.2951L15.4039 11.2375L15.135 11.1607L14.8469 11.1031L14.578 11.0454L14.2898 10.9878L14.0209 10.911L13.752 10.8341L13.4831 10.7765L13.195 10.6997L12.926 10.6228L12.6571 10.546L12.3882 10.4884L12.1193 10.4115L11.8504 10.3155L11.5622 10.2387L11.3125 10.1618L11.1973 10.1234L12.7916 5.07158L12.8684 5.11L13.1181 5.18683L13.3486 5.24446L13.5791 5.32129L13.8288 5.39813L14.0785 5.45575L14.309 5.51338L14.5588 5.59021L14.7893 5.64784L15.039 5.70546L15.2695 5.7823L15.5192 5.82071L15.7689 5.87834L16.0186 5.93596L16.2491 5.99359L16.4988 6.05122L16.7485 6.10884L16.9982 6.14726L17.2479 6.20488L17.4785 6.2433L17.6129 6.26251L16.6525 11.468L16.5372 11.4488Z" fill="white"/>
<path d="M5.83859 8.06827L5.58888 7.95302L5.33917 7.81856L5.08946 7.70331L4.83975 7.58806L4.59004 7.47281L4.34033 7.33835L4.09062 7.2231L3.84091 7.08864L3.61041 6.95418L3.36069 6.81972L3.11098 6.70447L2.88048 6.57001L2.63077 6.43555L2.40027 6.30109L2.15056 6.16663L1.92006 6.03217L1.67035 5.8785L1.43984 5.74404L1.20934 5.59037L0.998047 5.47512L3.78328 0.96112L3.95616 1.07637L4.16745 1.21083L4.35954 1.32608L4.57083 1.44133L4.78212 1.57579L4.99342 1.69104L5.22392 1.8063L5.43521 1.92155L5.64651 2.0368L5.8578 2.17126L6.0691 2.28651L6.28039 2.38255L6.51089 2.4978L6.72219 2.61305L6.93348 2.7283L7.16398 2.82435L7.37527 2.9396L7.60578 3.05485L7.81707 3.15089L8.04757 3.24693L8.16282 3.30456L5.95384 8.10669L5.83859 8.06827Z" fill="white"/>
</svg>
